PathFileType	4	(X/Y/Z)	 s03c0102.trc
DataRate	CameraRate	NumFrames	NumMarkers	Units	OrigDataRate	OrigDataStartFrame	OrigNumFrames
200	200	4	52	mm	200	1751	2000
Frame#	Time	racr			lacr			c7			jug			rlel			rdr			llel			ldr			s2			lic			ric			lasi			rasi			rpsi			lpsi			rgt			lgt			rth1			rth2			rth3			rth4			rlfc			rmfc			rsh1			rsh2			rsh3			rsh4			rlmal			rmmal			rcal			rtoe			rmt5			rmt1			lth1			lth2			lth4			lth3			llfc			lmfc			lsh1			lsh2			lsh3			lsh4			llmal			lmmal			lcal			ltoe			lmt1			lmt5			SBIKE			LBIKE			RBIKE			
		X1	Y1	Z1	X2	Y2	Z2	X3	Y3	Z3	X4	Y4	Z4	X5	Y5	Z5	X6	Y6	Z6	X7	Y7	Z7	X8	Y8	Z8	X9	Y9	Z9	X10	Y10	Z10	X11	Y11	Z11	X12	Y12	Z12	X13	Y13	Z13	X14	Y14	Z14	X15	Y15	Z15	X16	Y16	Z16	X17	Y17	Z17	X18	Y18	Z18	X19	Y19	Z19	X20	Y20	Z20	X21	Y21	Z21	X22	Y22	Z22	X23	Y23	Z23	X24	Y24	Z24	X25	Y25	Z25	X26	Y26	Z26	X27	Y27	Z27	X28	Y28	Z28	X29	Y29	Z29	X30	Y30	Z30	X31	Y31	Z31	X32	Y32	Z32	X33	Y33	Z33	X34	Y34	Z34	X35	Y35	Z35	X36	Y36	Z36	X37	Y37	Z37	X38	Y38	Z38	X39	Y39	Z39	X40	Y40	Z40	X41	Y41	Z41	X42	Y42	Z42	X43	Y43	Z43	X44	Y44	Z44	X45	Y45	Z45	X46	Y46	Z46	X47	Y47	Z47	X48	Y48	Z48	X49	Y49	Z49	X50	Y50	Z50	X51	Y51	Z51	X52	Y52	Z52	
1751	8.7550	474.684964	1406.132442	-67.365522	458.390157	1410.215665	-375.412976	395.922045	1493.635359	-216.638056	412.357769	1322.814152	-216.022174	531.195202	1144.153441	21.036995	736.132716	941.875719	-38.250258	543.014870	1157.166017	-434.091598	744.781796	928.170613	-402.946036	-115.610032	1196.511653	-216.873872	54.744117	1235.134014	-395.715206	47.882497	1222.758096	-30.079494	71.503197	1160.092802	-358.112501	76.776311	1148.359780	-74.193945	-91.032483	1246.316135	-170.502229	-84.974579	1248.861509	-252.488989	-9.834423	1105.507785	-27.927671	3.361664	1153.037518	-420.074901	52.804070	956.631072	-9.640480	114.707466	892.857753	-7.619381	140.100538	811.243885	-20.249227	146.694266	911.512910	-12.696570	189.120511	695.881910	-52.594550	208.800872	684.447926	-165.104901	163.212955	528.595897	-26.459798	179.492552	441.279896	-38.521918	148.880403	358.344753	-43.417209	209.964207	441.378215	-62.875974	130.155822	226.249327	-67.265376	156.934881	243.113202	-149.336686	75.203799	176.046817	-105.692408	385.139538	188.294162	-109.446029	268.160197	161.706909	-37.550716	291.497694	184.951891	-150.936087	109.631297	1083.621669	-472.507582	192.535679	1074.968084	-495.246619	208.636381	1106.270137	-482.798035	262.066472	1020.935829	-513.752866	392.335504	964.123785	-525.049456	419.655104	955.531203	-395.295093	291.019787	825.023316	-511.676925	260.259955	753.329269	-476.030392	189.344539	701.811017	-453.790830	288.206364	740.944078	-451.882276	110.795736	611.202179	-408.762242	148.599789	629.573018	-323.276160	36.895718	587.602493	-353.426571	333.096130	502.973675	-354.533367	241.138807	521.111563	-309.688009	211.800162	508.692207	-424.714740	-214.665694	946.055466	-230.845370	-6.103500	83.961669	-434.929584	-11.473708	81.190214	-34.534427	
1752	8.7600	474.530325	1406.174317	-67.379807	458.509740	1410.269111	-375.365117	395.884768	1493.661036	-216.722554	412.343143	1322.873434	-216.094464	531.157421	1144.181557	20.886107	736.153982	941.890482	-38.272762	543.120491	1157.229340	-434.176829	744.751258	928.156262	-402.981715	-115.698420	1196.522422	-217.075410	54.780044	1234.891310	-395.895452	47.708240	1222.969770	-30.227620	71.439698	1159.877142	-358.215984	76.625785	1148.382660	-74.172705	-91.185629	1246.379437	-170.716290	-85.064696	1248.868224	-252.705462	-9.985770	1105.587785	-28.018902	3.387222	1153.020500	-420.090162	52.670887	956.666768	-9.700452	114.557037	892.893781	-7.656205	139.939660	811.296972	-20.303642	146.571495	911.558217	-12.715827	188.990770	695.918662	-52.643650	208.652454	684.532174	-165.138617	163.262870	528.620014	-26.511927	180.012979	441.311828	-38.360630	149.188789	358.361502	-43.420175	210.069144	441.443119	-63.001863	130.662055	226.223919	-67.245306	157.490171	243.130013	-149.323947	75.781293	175.924759	-105.724376	385.692900	188.596122	-109.481819	268.794997	161.839161	-37.567210	292.073566	185.091258	-150.919118	109.591789	1083.642642	-472.563342	192.476752	1074.914338	-495.324927	208.637654	1106.189863	-482.829811	261.944279	1020.824834	-513.925798	392.153315	963.844247	-525.217555	419.669463	955.270640	-395.472852	290.755955	824.899156	-511.744600	259.915628	753.192207	-476.075073	189.001096	701.805285	-453.856232	287.921223	740.811023	-452.014895	110.421499	611.262730	-408.815320	148.175701	629.568040	-323.329282	36.434625	587.796897	-353.444276	332.541812	502.477790	-354.215106	240.144843	520.468265	-310.113814	211.208919	508.543897	-424.767716	-214.663938	946.040376	-230.873751	-6.098790	83.975041	-434.921664	-11.469225	81.183342	-34.534797	
1753	8.7650	474.337017	1406.243945	-67.391148	458.652013	1410.373227	-375.296617	395.736227	1493.653214	-216.252875	412.303541	1322.945424	-216.089896	531.120570	1144.215140	20.720437	736.165319	941.916355	-38.333865	543.198597	1157.324295	-434.232605	744.714959	928.159274	-403.033790	-115.791341	1196.513765	-217.295177	54.870691	1234.562567	-396.095673	47.554759	1223.149641	-30.375345	71.125514	1159.634650	-358.090408	76.491132	1148.420706	-74.121095	-91.282197	1246.389421	-170.946567	-85.833376	1248.983779	-253.647172	-10.151725	1105.656598	-28.114986	3.379496	1153.005993	-420.084909	52.547628	956.710588	-9.760953	114.446450	892.933968	-7.698511	139.798731	811.315054	-20.339412	146.438399	911.581407	-12.770832	188.875749	695.964462	-52.719072	208.485130	684.551623	-165.262038	163.357131	528.660467	-26.557973	180.229653	441.358640	-38.391141	149.552467	358.369284	-43.435684	210.315470	441.496956	-63.046528	131.214609	226.202260	-67.222305	158.068155	243.143863	-149.311067	76.434841	175.789090	-105.699536	386.283891	188.935366	-109.460108	269.452986	161.983568	-37.578531	292.679834	185.266709	-150.872004	109.578771	1083.647098	-472.613059	192.443761	1074.813245	-495.370730	208.629773	1106.080986	-482.893384	261.856072	1020.665922	-514.055614	391.981282	963.536548	-525.366419	419.628901	954.970297	-395.618329	290.440515	824.751147	-511.847763	259.505057	753.045975	-476.155644	188.580845	701.754428	-453.883278	287.446246	740.884655	-452.729601	109.973603	611.276118	-408.829165	147.711005	629.538870	-323.340710	35.964485	587.945661	-353.467290	331.869430	502.271803	-354.539405	239.521185	520.294093	-310.113683	210.415394	508.610598	-425.137140	-214.669368	946.037122	-230.877391	-6.105531	83.969580	-434.941655	-11.474049	81.189050	-34.537773	
1754	8.7700	474.135667	1406.267009	-67.454339	458.768722	1410.455474	-375.227757	395.648088	1493.684320	-216.322182	412.253055	1322.999714	-216.162721	531.048351	1144.221412	20.497697	736.171511	941.965442	-38.390514	543.328646	1157.425989	-434.265485	744.691003	928.156319	-403.087228	-115.849656	1196.514905	-217.460302	54.923153	1234.266220	-396.324984	47.421587	1223.344456	-30.489341	71.267903	1159.291450	-358.472010	76.391707	1148.427678	-74.083707	-91.390145	1246.406861	-171.197216	-85.242108	1248.813718	-253.203404	-10.279812	1105.694849	-28.208192	3.390188	1152.985147	-420.121504	52.471807	956.738584	-9.862147	114.356442	892.956005	-7.729904	139.704176	811.324703	-20.400378	146.529400	911.340681	-13.361801	188.808423	695.995501	-52.835155	208.333506	684.570008	-165.399247	163.472682	528.658647	-26.627147	180.476678	441.385319	-38.434530	149.916630	358.368804	-43.485992	210.534465	441.578000	-63.098670	131.783289	226.155486	-67.180498	158.660569	243.102585	-149.326486	77.057878	175.629929	-105.677430	386.884440	189.319603	-109.417953	270.057662	162.156478	-37.529234	293.295137	185.509542	-150.880823	109.549990	1083.605574	-472.663593	192.414998	1074.700207	-495.445518	208.659845	1105.867601	-482.980819	261.718958	1020.471652	-514.232026	391.799203	963.176694	-525.490084	419.575566	954.595263	-395.765663	290.133689	824.504178	-511.941014	259.148440	752.870198	-476.268355	188.128222	701.655162	-453.935697	287.057504	740.684724	-452.885255	109.434339	611.271204	-408.828418	147.537554	629.300464	-323.215890	35.453655	588.018931	-353.420610	331.183298	501.995664	-354.532414	238.887606	520.112519	-310.121238	209.759467	508.464835	-425.189093	-214.684557	946.036715	-230.892283	-6.106688	83.988550	-434.934426	-11.480871	81.187722	-34.556705	
